<svg xmlns="http://www.w3.org/2000/svg" viewBox="0 0 1200 630" role="img" aria-labelledby="title desc">
  <title id="title">ChatGPT Universal Spawn social card</title>
  <desc id="desc">A portal-and-conversation mark beside a description of the ChatGPT-first plugin creation toolkit.</desc>
  <rect width="1200" height="630" fill="#0B1020"/>
  <circle cx="1040" cy="90" r="210" fill="#8B5CF6" opacity=".12"/><circle cx="100" cy="600" r="260" fill="#2DD4BF" opacity=".10"/>
  <g transform="translate(90 155) scale(2.15)">
    <g fill="none" stroke="#2DD4BF" stroke-width="6" stroke-linecap="round"><path d="M8 44h18"/><path d="M8 72h18"/><path d="M8 100h18"/></g>
    <circle cx="8" cy="44" r="7" fill="#2DD4BF"/><circle cx="8" cy="72" r="7" fill="#A78BFA"/><rect x="1" y="93" width="14" height="14" rx="3" fill="#F8FAFC"/>
    <path fill="#F8FAFC" d="M58 14H43c-16 0-28 12-28 28v48c0 16 12 28 28 28h4l-7 18 28-18V89H55V43h13V14H58Z"/>
    <path fill="#A78BFA" d="M86 14h15c16 0 28 12 28 28v48c0 16-12 28-28 28h-4l7 18-28-18V89h13V43H76V14h10Z"/>
    <path d="M68 52 56 61v36l12 9 12-9V61L68 52Z" fill="#0B1020"/>
    <path d="M91 72h36m0-11 12 11-12 11" fill="none" stroke="#2DD4BF" stroke-width="7" stroke-linecap="round" stroke-linejoin="round"/>
  </g>
  <text x="470" y="220" fill="#F8FAFC" font-family="Inter, ui-sans-serif, system-ui, sans-serif" font-size="62" font-weight="760">ChatGPT Universal</text>
  <text x="470" y="292" fill="#F8FAFC" font-family="Inter, ui-sans-serif, system-ui, sans-serif" font-size="62" font-weight="760">Spawn</text>
  <text x="473" y="365" fill="#99F6E4" font-family="Inter, ui-sans-serif, system-ui, sans-serif" font-size="25" font-weight="600">A ChatGPT-first plugin creation toolkit.</text>
  <text x="473" y="414" fill="#CBD5E1" font-family="Inter, ui-sans-serif, system-ui, sans-serif" font-size="22">Scaffold · validate · build · install</text>
  <rect x="473" y="462" width="485" height="50" rx="25" fill="#2DD4BF"/>
  <text x="505" y="495" fill="#0B1020" font-family="ui-monospace, SFMono-Regular, Consolas, monospace" font-size="18" font-weight="700">npx @agentmindcloud/chatgpt-spawn</text>
</svg>
